<svg xmlns="http://www.w3.org/2000/svg" xmlns:xlink="http://www.w3.org/1999/xlink" width="1886" zoomAndPan="magnify" viewBox="0 0 1414.5 380.250002" height="507" preserveAspectRatio="xMidYMid meet" version="1.0"><defs><g/><clipPath id="f2f8679ec4"><path d="M 1.144531 0 L 172 0 L 172 296 L 1.144531 296 Z M 1.144531 0 " clip-rule="nonzero"/></clipPath><clipPath id="aaeaf8f3d8"><path d="M 382 84 L 553 84 L 553 379.5 L 382 379.5 Z M 382 84 " clip-rule="nonzero"/></clipPath><clipPath id="1e1a461347"><path d="M 765 84 L 936 84 L 936 379.5 L 765 379.5 Z M 765 84 " clip-rule="nonzero"/></clipPath><clipPath id="1e5a0a5391"><path d="M 969 84 L 1140 84 L 1140 379.5 L 969 379.5 Z M 969 84 " clip-rule="nonzero"/></clipPath></defs><g clip-path="url(#f2f8679ec4)"><g fill="#ffffff" fill-opacity="1"><g transform="translate(-15.788845, 295.021058)"><g><path d="M 37.878906 0 C 50.085938 0 58.921875 -8.839844 58.921875 -21.042969 L 58.921875 -126.261719 L 145.203125 -126.261719 L 145.203125 -21.042969 C 145.203125 -8.839844 154.042969 0 166.246094 0 C 178.453125 0 187.289062 -8.839844 187.289062 -21.042969 L 187.289062 -210.4375 C 187.289062 -257.15625 148.570312 -295.035156 101.851562 -295.035156 C 55.136719 -295.035156 16.835938 -257.15625 16.835938 -210.4375 L 16.835938 -21.042969 C 16.835938 -8.839844 25.671875 0 37.878906 0 Z M 58.921875 -168.351562 L 58.921875 -209.597656 C 58.921875 -234.007812 78.285156 -253.367188 101.851562 -253.367188 C 125.84375 -253.367188 145.203125 -234.007812 145.203125 -209.597656 L 145.203125 -168.351562 Z M 58.921875 -168.351562 "/></g></g></g></g><g fill="#ffffff" fill-opacity="1"><g transform="translate(188.336409, 295.021058)"><g><path d="M 37.878906 0 C 50.085938 0 58.921875 -8.839844 58.921875 -21.042969 L 58.921875 -147.308594 C 58.921875 -159.089844 68.183594 -168.351562 79.964844 -168.351562 L 109.847656 -168.351562 C 121.632812 -168.351562 130.894531 -163.300781 130.894531 -151.515625 C 130.894531 -139.308594 139.730469 -130.472656 151.9375 -130.472656 C 164.140625 -130.472656 172.980469 -139.308594 172.980469 -151.515625 C 172.980469 -186.449219 144.78125 -210.4375 109.847656 -210.4375 L 79.964844 -210.4375 C 70.285156 -210.4375 61.027344 -208.335938 53.03125 -204.546875 C 49.242188 -208.335938 44.191406 -210.4375 37.878906 -210.4375 C 25.671875 -210.4375 16.835938 -201.601562 16.835938 -189.394531 L 16.835938 -21.042969 C 16.835938 -8.839844 25.671875 0 37.878906 0 Z M 37.878906 0 "/></g></g></g><g clip-path="url(#aaeaf8f3d8)"><g fill="#ffffff" fill-opacity="1"><g transform="translate(365.52553, 295.021058)"><g><path d="M 37.878906 84.175781 C 50.085938 84.175781 58.921875 75.335938 58.921875 63.132812 L 58.921875 -11.785156 C 71.550781 -4.207031 86.28125 0 102.273438 0 C 148.992188 0 187.289062 -37.878906 187.289062 -84.597656 L 187.289062 -125.84375 C 187.289062 -172.558594 148.992188 -210.4375 102.273438 -210.4375 C 85.859375 -210.4375 70.285156 -205.808594 57.238281 -197.8125 C 54.292969 -205.386719 47.136719 -210.4375 37.878906 -210.4375 C 25.671875 -210.4375 16.835938 -201.601562 16.835938 -189.394531 L 16.835938 63.132812 C 16.835938 75.335938 25.671875 84.175781 37.878906 84.175781 Z M 102.273438 -41.667969 C 78.285156 -41.667969 58.921875 -61.449219 58.921875 -85.4375 L 58.921875 -125 C 58.921875 -149.410156 78.285156 -168.773438 102.273438 -168.773438 C 125.84375 -168.773438 145.203125 -149.410156 145.203125 -125 L 145.203125 -85.4375 C 145.203125 -61.449219 125.84375 -41.667969 102.273438 -41.667969 Z M 102.273438 -41.667969 "/></g></g></g></g><g fill="#ffffff" fill-opacity="1"><g transform="translate(561.233282, 295.021058)"><g><path d="M 93.433594 0 C 116.582031 0 136.785156 -8.839844 152.359375 -23.148438 C 162.878906 -32.828125 158.25 -48.402344 146.464844 -55.976562 C 137.628906 -61.449219 129.210938 -58.082031 121.210938 -51.347656 C 113.636719 -45.035156 103.957031 -41.246094 93.433594 -41.667969 C 70.285156 -41.667969 51.347656 -60.183594 50.503906 -84.175781 L 157.828125 -84.175781 C 170.035156 -84.175781 178.871094 -93.015625 178.871094 -105.21875 L 178.871094 -125.84375 C 178.453125 -172.558594 140.152344 -210.4375 93.433594 -210.4375 C 46.71875 -210.4375 8.417969 -172.558594 8.417969 -125.84375 L 8.417969 -84.597656 C 8.839844 -37.878906 46.71875 0 93.433594 0 Z M 50.503906 -126.261719 C 51.347656 -149.832031 70.285156 -168.773438 93.433594 -168.773438 C 117.003906 -168.773438 135.945312 -149.832031 136.785156 -126.261719 Z M 50.503906 -126.261719 "/></g></g></g><g clip-path="url(#1e1a461347)"><g fill="#ffffff" fill-opacity="1"><g transform="translate(748.523473, 295.021058)"><g><path d="M 101.851562 84.175781 C 148.570312 84.175781 187.289062 46.296875 187.289062 -0.421875 L 187.289062 -189.394531 C 187.289062 -201.601562 178.453125 -210.4375 166.246094 -210.4375 C 156.988281 -210.4375 149.832031 -205.386719 146.886719 -197.8125 C 133.839844 -205.808594 118.265625 -210.4375 101.851562 -210.4375 C 55.136719 -210.4375 16.835938 -172.558594 16.835938 -125.84375 L 16.835938 -108.164062 C 16.835938 -61.449219 55.136719 -23.570312 101.851562 -23.570312 C 117.847656 -23.570312 132.578125 -27.777344 145.203125 -35.355469 L 145.203125 -1.261719 C 145.203125 23.148438 125.84375 42.507812 101.851562 42.507812 C 78.285156 42.507812 58.921875 23.148438 58.921875 -1.261719 C 58.921875 -13.46875 50.085938 -22.304688 37.878906 -22.304688 C 25.671875 -22.304688 16.835938 -13.46875 16.835938 -1.261719 L 16.835938 -0.421875 C 16.835938 46.296875 55.136719 84.175781 101.851562 84.175781 Z M 101.851562 -65.234375 C 78.285156 -65.234375 58.921875 -85.015625 58.921875 -109.007812 L 58.921875 -125 C 58.921875 -149.410156 78.285156 -168.773438 101.851562 -168.773438 C 125.84375 -168.773438 145.203125 -149.410156 145.203125 -125 L 145.203125 -109.007812 C 145.203125 -85.015625 125.84375 -65.234375 101.851562 -65.234375 Z M 101.851562 -65.234375 "/></g></g></g></g><g clip-path="url(#1e5a0a5391)"><g fill="#ffffff" fill-opacity="1"><g transform="translate(952.648727, 295.021058)"><g><path d="M 101.851562 84.175781 C 148.570312 84.175781 187.289062 46.296875 187.289062 -0.421875 L 187.289062 -189.394531 C 187.289062 -201.601562 178.453125 -210.4375 166.246094 -210.4375 C 156.988281 -210.4375 149.832031 -205.386719 146.886719 -197.8125 C 133.839844 -205.808594 118.265625 -210.4375 101.851562 -210.4375 C 55.136719 -210.4375 16.835938 -172.558594 16.835938 -125.84375 L 16.835938 -108.164062 C 16.835938 -61.449219 55.136719 -23.570312 101.851562 -23.570312 C 117.847656 -23.570312 132.578125 -27.777344 145.203125 -35.355469 L 145.203125 -1.261719 C 145.203125 23.148438 125.84375 42.507812 101.851562 42.507812 C 78.285156 42.507812 58.921875 23.148438 58.921875 -1.261719 C 58.921875 -13.46875 50.085938 -22.304688 37.878906 -22.304688 C 25.671875 -22.304688 16.835938 -13.46875 16.835938 -1.261719 L 16.835938 -0.421875 C 16.835938 46.296875 55.136719 84.175781 101.851562 84.175781 Z M 101.851562 -65.234375 C 78.285156 -65.234375 58.921875 -85.015625 58.921875 -109.007812 L 58.921875 -125 C 58.921875 -149.410156 78.285156 -168.773438 101.851562 -168.773438 C 125.84375 -168.773438 145.203125 -149.410156 145.203125 -125 L 145.203125 -109.007812 C 145.203125 -85.015625 125.84375 -65.234375 101.851562 -65.234375 Z M 101.851562 -65.234375 "/></g></g></g></g><g fill="#ffffff" fill-opacity="1"><g transform="translate(1156.773981, 295.021058)"><g><path d="M 37.878906 0 C 50.085938 0 58.921875 -8.839844 58.921875 -21.042969 L 58.921875 -189.394531 C 58.921875 -201.601562 50.085938 -210.4375 37.878906 -210.4375 C 25.671875 -210.4375 16.835938 -201.601562 16.835938 -189.394531 L 16.835938 -21.042969 C 16.835938 -8.839844 25.671875 0 37.878906 0 Z M 37.878906 -231.484375 C 50.085938 -231.484375 58.921875 -240.320312 58.921875 -252.527344 C 58.921875 -264.730469 50.085938 -273.570312 37.878906 -273.570312 C 25.671875 -273.570312 16.835938 -264.730469 16.835938 -252.527344 C 16.835938 -240.320312 25.671875 -231.484375 37.878906 -231.484375 Z M 37.878906 -231.484375 "/></g></g></g><g fill="#ffffff" fill-opacity="1"><g transform="translate(1232.531707, 295.021058)"><g><path d="M 93.433594 0 C 140.152344 0 178.453125 -37.878906 178.871094 -84.597656 L 178.871094 -125.84375 C 178.453125 -172.558594 140.152344 -210.4375 93.433594 -210.4375 C 46.71875 -210.4375 8.417969 -172.558594 8.417969 -125.84375 L 8.417969 -84.597656 C 8.839844 -37.878906 46.71875 0 93.433594 0 Z M 93.433594 -41.667969 C 69.867188 -41.667969 50.503906 -61.027344 50.503906 -85.4375 L 50.503906 -125 C 50.503906 -148.992188 69.867188 -168.773438 93.433594 -168.773438 C 117.425781 -168.773438 136.785156 -148.992188 136.785156 -125 L 136.785156 -85.4375 C 136.785156 -61.027344 117.425781 -41.667969 93.433594 -41.667969 Z M 93.433594 -41.667969 "/></g></g></g></svg>